<?xml version="1.0" standalone="no"?>
<!DOCTYPE svg PUBLIC "-//W3C//DTD SVG 20010904//EN"
 "http://www.w3.org/TR/2001/REC-SVG-20010904/DTD/svg10.dtd">
<svg version="1.0" xmlns="http://www.w3.org/2000/svg"
 width="256.000000pt" height="256.000000pt" viewBox="0 0 256.000000 256.000000"
 preserveAspectRatio="xMidYMid meet">

<g transform="translate(0.000000,256.000000) scale(0.100000,-0.100000)"
fill="#000000" stroke="none">
<path d="M1211 1625 c-17 -20 -33 -46 -37 -59 -4 -19 -12 -23 -42 -22 -77 2
-80 -89 -6 -202 30 -46 104 -112 124 -112 4 0 31 20 58 45 119 107 152 288 50
273 -25 -4 -30 0 -48 38 -12 23 -32 49 -45 58 -22 15 -25 14 -54 -19z m83 -39
c21 -45 21 -47 -17 -77 l-33 -26 -33 27 c-37 32 -36 50 6 100 30 36 52 29 77
-24z m-142 -58 c9 -7 18 -33 21 -57 3 -24 19 -66 37 -94 24 -38 30 -59 28 -89
l-3 -39 -41 35 c-52 44 -104 141 -104 193 0 56 27 78 62 51z m235 4 c46 -29 7
-149 -76 -231 l-56 -56 -3 42 c-2 33 3 50 27 83 16 23 35 67 42 98 15 68 33
85 66 64z m-170 -44 c18 -17 23 -32 23 -70 0 -58 -13 -56 -41 6 -19 41 -25 86
-12 86 4 0 17 -10 30 -22z m72 -67 c-12 -28 -25 -51 -30 -51 -5 0 -9 22 -9 49
0 42 4 53 28 71 27 22 27 22 30 2 2 -11 -7 -43 -19 -71z"/>
<path d="M909 1376 c-19 -9 -24 -20 -24 -49 0 -29 -5 -39 -20 -43 -34 -11 -85
-54 -85 -73 0 -23 37 -58 76 -71 27 -9 29 -14 26 -44 -3 -28 1 -37 22 -51 49
-33 143 3 233 88 67 63 68 82 7 147 -71 76 -183 122 -235 96z m133 -36 c46
-23 128 -97 128 -115 0 -15 -81 -6 -100 11 -27 23 -104 54 -136 54 -36 0 -51
29 -32 63 8 16 18 19 53 14 24 -2 63 -14 87 -27z m-118 -163 c-16 -18 -30 -33
-30 -35 -4 -8 -71 28 -88 46 -16 19 -17 24 -5 38 8 10 31 25 53 35 l38 17 31
-35 30 -34 -29 -32z m99 70 c20 -11 37 -23 37 -26 0 -3 -24 -4 -52 -3 -40 3
-57 9 -70 25 -10 12 -18 25 -18 29 0 12 63 -3 103 -25z m37 -52 c0 -9 -103
-55 -122 -55 -24 0 -23 9 4 37 17 18 32 23 70 23 26 0 48 -2 48 -5z m110 -3
c0 -5 -19 -28 -42 -51 -101 -100 -254 -125 -233 -38 6 21 14 25 58 31 35 4 65
15 92 35 29 21 52 30 83 30 23 1 42 -3 42 -7z"/>
<path d="M1453 1355 c-65 -33 -143 -115 -143 -150 0 -54 134 -157 224 -172 53
-8 90 19 83 61 -5 30 -2 34 27 44 18 7 43 23 56 37 21 22 22 27 10 50 -7 14
-32 34 -55 45 -37 18 -41 24 -37 48 9 65 -73 83 -165 37z m142 -1 c9 -9 14
-23 11 -31 -3 -8 -6 -18 -6 -22 0 -5 -20 -11 -45 -14 -50 -7 -99 -29 -131 -59
-16 -14 -33 -18 -65 -16 l-44 3 44 47 c47 52 148 108 192 108 15 0 35 -7 44
-16z m-41 -115 c-27 -27 -36 -30 -80 -27 l-49 3 36 22 c34 21 109 44 118 36 3
-2 -9 -17 -25 -34z m105 15 c15 -9 33 -25 39 -35 10 -15 7 -22 -21 -42 -54
-41 -69 -41 -101 -1 l-28 36 28 29 c32 33 45 35 83 13z m-210 -85 c29 -18 69
-34 96 -37 36 -4 49 -10 57 -28 16 -34 -5 -54 -54 -54 -62 0 -165 59 -208 120
l-21 30 40 0 c27 0 55 -10 90 -31z m108 9 c13 -12 23 -25 23 -30 0 -14 -43 -8
-86 11 -61 28 -64 41 -8 41 35 0 54 -6 71 -22z"/>
<path d="M1169 1122 c-57 -59 -99 -143 -99 -197 0 -37 36 -68 70 -61 23 4 29
1 34 -19 8 -30 54 -85 71 -85 19 0 75 67 75 90 0 16 5 19 30 13 69 -13 90 59
45 156 -38 81 -114 161 -154 161 -8 0 -40 -26 -72 -58z m71 -6 c0 -25 -6 -48
-14 -55 -23 -19 -50 -82 -56 -131 -5 -44 -6 -45 -40 -45 -34 0 -35 1 -38 43
-2 29 4 58 19 90 23 46 104 142 120 142 5 0 9 -20 9 -44z m70 2 c100 -100 129
-238 50 -238 -25 0 -30 4 -30 25 0 34 -33 118 -59 151 -21 27 -30 104 -12 104
5 0 28 -19 51 -42z m-97 -195 c-27 -23 -28 -23 -31 -3 -2 11 9 46 25 78 l28
57 3 -55 c3 -50 1 -57 -25 -77z m87 49 c5 -20 10 -46 10 -56 0 -17 -4 -16 -30
9 -26 25 -30 36 -30 79 l1 51 19 -23 c11 -13 24 -40 30 -60z m-15 -72 c25 -27
27 -32 15 -59 -6 -16 -21 -38 -31 -47 -26 -23 -47 -11 -73 41 l-19 38 34 28
c19 16 37 29 40 29 3 0 18 -13 34 -30z"/>
</g>
</svg>
